<?xml version="1.0" encoding="utf-8"?>
<!-- Generator: Adobe Illustrator 26.3.1, SVG Export Plug-In . SVG Version: 6.00 Build 0)  -->
<svg version="1.1" id="Layer_1" xmlns="http://www.w3.org/2000/svg" xmlns:xlink="http://www.w3.org/1999/xlink" x="0px" y="0px"
	 viewBox="0 0 2267.72 1133.86" style="enable-background:new 0 0 2267.72 1133.86;" xml:space="preserve">
<style type="text/css">
	.st0{fill:#1AB16A;}
	.st1{fill:#1AB06A;}
	.st2{fill:#19AF69;}
	.st3{fill:#18A463;}
	.st4{fill:#19AA66;}
</style>
<g>
	<path class="st0" d="M319.61,217.91c193.09,0,349.51,156.51,348.87,350.28c-0.66,197.38-162.84,350.93-354.75,347.88
		C127.8,913.11-29.38,762.23-29.63,567.31C-29.87,372.76,127.71,217.81,319.61,217.91z M274,402.69
		c-40.91,0.13-76.35,2.12-111.34,8.35c-20.61,3.67-41.07,8.5-61.28,13.95c-17.3,4.67-26.55,23.01-21.56,39.99
		c5.04,17.16,22.76,26.83,40.28,21.98c5.13-1.42,10.23-2.95,15.4-4.23c51.49-12.71,103.83-16.32,156.66-14.52
		c40.72,1.39,80.99,6.3,120.67,15.61c39.75,9.32,77.88,22.85,113.32,43.49c11.9,6.93,24.06,6.3,35.27-1.72
		c19.36-13.85,17.8-41.98-2.96-54.46c-21.18-12.74-43.6-22.92-66.8-31.38C419.63,413.47,344.91,403.36,274,402.69z M259.65,521.95
		c-20.73,1.6-41.5,2.72-62.17,4.91c-26.02,2.76-51.55,8.34-76.6,15.97c-13.32,4.06-22.75,20.02-17.54,34.74
		c4.85,13.71,19.77,21.23,34.24,16.75c32.97-10.21,66.83-15.23,101.21-16.42c17.58-0.61,35.25-0.09,52.82,0.97
		c16.87,1.02,33.8,2.56,50.46,5.33c50.66,8.43,98.83,24.19,142.98,51.05c6.57,4,13.74,5.06,21.14,2.82
		c10.87-3.3,17.74-10.64,19.4-21.86c1.76-11.85-2.89-21.26-13.17-27.51c-49.41-30.06-103.23-48.05-159.95-57.94
		C321.8,525.43,290.86,522.98,259.65,521.95z M263.41,636.68c-42.42,0.24-86.11,5.79-129.17,16.07c-4.55,1.09-9.26,4.02-12.53,7.42
		c-6.4,6.65-6.77,16.89-2.09,24.58c5.24,8.62,14.28,12.09,25.15,9.66c46.34-10.34,93.11-16.09,140.72-13.89
		c58.42,2.7,113.32,17.19,163.66,47.6c10.89,6.58,23.69,3.52,30.1-6.87c6.52-10.57,3.31-23.53-8.03-30.12
		c-10.64-6.19-21.42-12.21-32.52-17.51C383.89,647.43,325.71,636.78,263.41,636.68z"/>
	<path class="st0" d="M1871.93,539.92c-8.36,0-15.99-0.19-23.61,0.07c-4.64,0.16-6.16-1.72-6.11-6.18c0.16-14,0.03-28,0.07-42
		c0.02-5.61,0.96-6.49,6.84-6.56c7-0.09,14-0.1,20.99-0.16c0.32,0,0.64-0.18,1.43-0.42c0.36-7.74,0.41-15.7,1.21-23.57
		c0.67-6.6,1.66-13.26,3.47-19.62c8.04-28.29,27.47-43.62,56.11-47.58c19.73-2.72,39.19-0.73,58.38,4.57
		c3.89,1.08,5.38,2.92,5.32,6.99c-0.2,13.66-0.05,27.33-0.09,41c-0.02,5.94-1.54,6.62-7.37,5.46c-10.07-1.99-20.22-4.33-30.41-4.75
		c-13.29-0.55-21.24,6.53-23.71,19.6c-1.13,5.96-1.03,12.16-1.54,18.98c2.85,0,4.8,0,6.74,0c27.17,0,54.33,0.14,81.5-0.12
		c5.19-0.05,7.68,1.66,9.51,6.48c19.25,50.73,38.72,101.38,58.13,152.04c0.87,2.27,1.79,4.53,3.2,8.08
		c4.59-13.04,8.71-24.73,12.81-36.43c14.59-41.62,29.21-83.22,43.68-124.88c1.31-3.77,3.25-5.28,7.23-5.24
		c16.5,0.14,33,0.06,49.5,0.06c8.49,0,9.6,1.56,6.59,9.33c-22.82,58.98-45.64,117.96-68.48,176.93
		c-8.78,22.66-17.13,45.51-26.63,67.87c-4.91,11.56-11.07,22.8-18.11,33.2c-12.51,18.47-30.9,27.24-53,28.51
		c-21.94,1.27-42.75-2.81-62.28-13.06c-5.27-2.77-5.8-4.07-3.37-9.43c5.35-11.83,10.72-23.65,16.14-35.45
		c2.25-4.9,3.65-5.42,8.54-2.96c10.15,5.09,20.68,8.25,32.2,7.14c9.99-0.96,22.49-12.34,23.98-22.13c0.2-1.35-0.41-2.92-0.96-4.26
		c-24.68-59.32-49.39-118.62-74.19-177.89c-0.6-1.43-2.28-3.43-3.48-3.44c-15.8-0.23-31.6-0.15-48.2-0.15c0,2.54,0,4.63,0,6.72
		c0,58.17,0,116.33,0,174.5c0,7.73-0.01,7.74-7.85,7.74c-15.67,0.01-31.33,0.01-47,0c-6.42-0.01-7.15-0.71-7.15-7.17
		c-0.01-58.17-0.01-116.33-0.01-174.5C1871.93,545.1,1871.93,542.94,1871.93,539.92z"/>
	<path class="st1" d="M1107.51,515.85c3.72-4,7.05-8.45,11.21-11.92c33.11-27.68,69.88-29.58,108.19-13.51
		c27.88,11.69,47.35,32.73,58.09,60.88c15.7,41.15,15.12,82.37-4.59,122.09c-25.1,50.59-86.12,73.91-137.15,53.47
		c-11.92-4.77-22.33-11.86-31.36-20.92c-1.59-1.59-2.45-3.91-3.64-5.89c-0.77,0.56-1.55,1.11-2.32,1.67c0,1.75,0,3.5,0,5.24
		c0,28.66,0.01,57.32-0.01,85.98c0,6.99-0.67,7.64-7.8,7.65c-15.66,0.02-31.33,0.03-46.99,0c-6.28-0.01-7.21-0.97-7.21-7.28
		c-0.01-100.15-0.01-200.29,0-300.44c0-6.66,0.58-7.26,7.07-7.27c16.16-0.02,32.33,0.09,48.49-0.07c4.69-0.05,6.65,1.65,6.5,6.45
		c-0.23,7.62-0.06,15.26-0.06,22.88C1106.46,515.18,1106.99,515.52,1107.51,515.85z M1104.71,607.37
		c0.06,14.09,2.52,25.7,9.06,37.49c12.99,23.39,32.86,35.51,59.84,33.86c25.9-1.59,43.4-15.66,52.96-39.34
		c7.61-18.86,7.92-38.34,2.13-57.81c-13.69-45.98-67.72-61.27-102.16-28.74C1111,567.49,1104.93,586.37,1104.71,607.37z"/>
	<path class="st1" d="M906.83,734.35c-48.76-1.36-91.7-17.34-128.78-48.91c-5.93-5.05-5.91-5.83-1.02-11.63
		c9.23-10.95,18.45-21.93,27.64-32.91c4.95-5.91,5.79-6.02,11.57-1.18c16.21,13.59,33.64,25.12,54.08,31.36
		c19.26,5.88,38.91,8.06,58.65,3.37c6.92-1.65,13.81-5.07,19.68-9.15c15.07-10.48,17.3-38.85-3-50.36
		c-14.26-8.08-29.8-12.28-45.48-16.12c-21.84-5.36-43.57-10.92-64.08-20.49c-31.79-14.83-49.39-39.12-50.14-74.65
		c-0.76-36.41,14.1-64.48,45.64-83.11c22.08-13.05,46.4-16.7,71.66-16.01c39.57,1.08,75.08,13.47,106.37,37.77
		c5.31,4.13,5.44,5.12,1.59,10.55c-8.38,11.82-16.76,23.65-25.15,35.46c-4.27,6.02-5.23,6.19-11.1,1.98
		c-17.76-12.74-36.74-22.97-58.46-27.03c-16.94-3.16-33.83-3.85-49.83,4.29c-13.94,7.09-19.88,19.48-17.01,34.83
		c1.6,8.53,6.87,14.25,14,18.51c13.47,8.05,28.55,11.73,43.44,15.96c17.11,4.86,34.39,9.3,51.17,15.14
		c17.59,6.12,33.71,15.21,46.35,29.42c15.01,16.87,19.36,37.15,18.52,58.97c-1.91,49.74-36.06,81.55-84.12,90.24
		C928.42,732.58,917.57,733.16,906.83,734.35z"/>
	<path class="st1" d="M1444.66,734.59c-64.25,0.01-115.36-39.32-129.15-96.5c-18.15-75.25,33.58-148.45,110.72-156.48
		c40.84-4.25,77.1,6.56,106.88,35.25c65.32,62.92,45.39,179.1-49.51,210.83c-6.29,2.1-12.81,3.71-19.35,4.79
		C1456.55,733.74,1448.72,734.17,1444.66,734.59z M1509.05,608.27c0.1-12.8-2.75-24.84-8.6-36.14
		c-21.36-41.24-78.76-48.91-108.77-14.25c-16.53,19.1-20.46,41.79-15.84,66.07c8.5,44.62,55.9,68.75,96.09,48.58
		C1498.08,659.41,1508.21,636.33,1509.05,608.27z"/>
	<path class="st1" d="M1666.94,485.57c2.49,0,4.28,0,6.06,0c16.83,0,33.65-0.02,50.48,0.01c6.02,0.01,6.76,0.71,6.78,6.51
		c0.04,13.83-0.1,27.65,0.08,41.48c0.06,4.68-1.49,6.5-6.38,6.43c-16.99-0.23-33.98-0.09-50.97-0.09c-1.79,0-3.57,0-5.77,0
		c-0.11,2.34-0.26,4.12-0.26,5.9c-0.01,34.82-0.02,69.63,0.01,104.45c0,2.32,0.21,4.66,0.52,6.96c1.77,12.86,8.7,19.02,21.69,19.52
		c11.2,0.43,21.84-1.73,31.99-6.45c6.05-2.82,8.4-1.41,8.42,5.17c0.06,12.99,0.2,25.99-0.15,38.98c-0.06,2.35-1.67,5.81-3.58,6.8
		c-27.14,14.08-55.46,16.04-84.08,5.71c-20.76-7.49-31.01-24.3-34.84-45.24c-1.34-7.32-1.89-14.88-1.93-22.34
		c-0.19-37.65-0.09-75.3-0.09-112.94c0-1.95,0-3.91,0-6.52c-8.02,0-15.46,0.01-22.91,0c-6.14-0.02-7.06-0.86-7.08-6.78
		c-0.04-13.49-0.04-26.99,0-40.48c0.02-6.1,0.95-7.03,6.9-7.07c7.46-0.04,14.91-0.01,22.8-0.01c0.11-2.3,0.27-4.07,0.27-5.85
		c0.02-17.16,0-34.32,0.02-51.47c0.01-6.53,0.77-7.33,7.03-7.34c15.99-0.02,31.98-0.02,47.98,0c6.42,0.01,6.99,0.62,6.99,7.3
		c0.01,16.99,0,33.98,0,50.98C1666.94,481.01,1666.94,482.82,1666.94,485.57z"/>
	<path class="st2" d="M1817.28,607.53c0,37.81,0.01,75.62,0,113.43c0,7.74-0.22,7.95-7.77,7.95c-15.99,0.01-31.98-0.15-47.97,0.09
		c-4.92,0.07-6.35-1.82-6.35-6.46c0.08-76.79,0.05-153.58,0.07-230.37c0-5.81,0.83-6.6,6.71-6.61c16.16-0.03,32.31-0.03,48.47,0
		c6.08,0.01,6.83,0.77,6.83,7.02C1817.29,530.91,1817.28,569.22,1817.28,607.53z"/>
	<path class="st1" d="M1786.39,378.57c21.75,0,38.75,16.8,38.88,38.42c0.13,21.79-17.03,38.94-38.93,38.92
		c-21.62-0.02-38.59-17.05-38.58-38.72C1747.77,395.5,1764.69,378.58,1786.39,378.57z"/>
	<path class="st3" d="M2297.34,523.57c-0.17,21.3-17.47,38.3-38.73,38.06c-21.04-0.24-37.92-17.5-37.72-38.57
		c0.2-20.96,17.45-38.07,38.38-38.07C2280.65,484.99,2297.51,502.08,2297.34,523.57z M2292.89,522.96
		c-0.02-19.18-14.67-33.73-33.86-33.64c-18.89,0.09-33.64,15.02-33.68,34.1c-0.04,18.9,15.01,34.1,33.77,34.11
		C2278.05,557.54,2292.91,542.33,2292.89,522.96z"/>
	<path class="st4" d="M2244.03,502.21c6.17,0,11.8-0.05,17.44,0.01c8.24,0.09,13.58,3.27,15.14,8.93c1.83,6.63-0.42,11.4-8.14,16.44
		c3.15,4.54,6.3,9.08,9.75,14.06c-5.23,1.08-9.43,1.52-12.02-3.67c-0.81-1.62-2.27-2.92-3.07-4.54c-2.32-4.65-5.91-5.92-11.25-4.22
		c0,3.81,0,7.89,0,12.59c-2.84,0.16-5.18,0.3-7.84,0.45C2244.03,528.75,2244.03,515.84,2244.03,502.21z M2252.05,509.52
		c0,4.24,0,7.95,0,11.87c4.08,0,7.75,0.32,11.33-0.09c3.21-0.37,5.56-2.24,5.51-5.96c-0.06-3.66-2.2-5.54-5.6-5.77
		C2259.68,509.33,2256.04,509.52,2252.05,509.52z"/>
</g>
</svg>
